<svg width="24" height="24" viewBox="0 0 24 24" fill="none" xmlns="http://www.w3.org/2000/svg">
<path fill-rule="evenodd" clip-rule="evenodd" d="M16 2C16.5523 2 17 2.44771 17 3L19 3C20.1046 3 21 3.89543 21 5V19C21 20.1046 20.1046 21 19 21H5C3.89543 21 3 20.1046 3 19V5C3 3.89543 3.89543 3 5 3H7C7 2.44772 7.44772 2 8 2C8.55228 2 9 2.44772 9 3L15 3C15 2.44772 15.4477 2 16 2ZM7 5C7 5.55228 7.44772 6 8 6C8.55228 6 9 5.55228 9 5H15C15 5.55228 15.4477 6 16 6C16.5523 6 17 5.55228 17 5H19V7L5 7V5H7ZM5 9V19H19V9L5 9Z" fill="black"/>
</svg>
