<svg width="20" height="20" viewBox="0 0 20 20" fill="none" xmlns="http://www.w3.org/2000/svg">
<path fill-rule="evenodd" clip-rule="evenodd" d="M10 2C5.58172 2 2 5.58172 2 10C2 14.4183 5.58172 18 10 18C14.4183 18 18 14.4183 18 10C18 5.58172 14.4183 2 10 2ZM0 10C0 4.47715 4.47715 0 10 0C15.5228 0 20 4.47715 20 10C20 15.5228 15.5228 20 10 20C4.47715 20 0 15.5228 0 10ZM14.6757 6.26285C15.0828 6.63604 15.1103 7.26861 14.7372 7.67572L9.23715 13.6757C9.04219 13.8884 8.76485 14.0065 8.4764 13.9997C8.18795 13.9929 7.91649 13.8618 7.73178 13.6402L5.23178 10.6402C4.87821 10.2159 4.93554 9.58534 5.35982 9.23178C5.78409 8.87822 6.41466 8.93554 6.76822 9.35982L8.53586 11.481L13.2628 6.32428C13.636 5.91716 14.2686 5.88965 14.6757 6.26285Z" fill="#FFF8EF"/>
</svg>
