<svg width="24" height="24" viewBox="0 0 24 24" fill="none" xmlns="http://www.w3.org/2000/svg">
<path fill-rule="evenodd" clip-rule="evenodd" d="M5 4C3.34315 4 2 5.34315 2 7V17C2 18.6569 3.34315 20 5 20H19C20.6569 20 22 18.6569 22 17V7C22 5.34315 20.6569 4 19 4H5ZM4.91756 6.00335C4.94475 6.00113 4.97224 6 5 6H19C19.0278 6 19.0553 6.00113 19.0824 6.00335L13.4142 11.6716C12.6332 12.4526 11.3668 12.4526 10.5858 11.6716L4.91756 6.00335ZM4 7.91421V17C4 17.5523 4.44772 18 5 18H19C19.5523 18 20 17.5523 20 17V7.91421L14.8284 13.0858C13.2663 14.6479 10.7337 14.6479 9.17157 13.0858L4 7.91421Z" fill="#14120F"/>
</svg>
