<svg width="24" height="24" viewBox="0 0 24 24" fill="none" xmlns="http://www.w3.org/2000/svg">
<path d="M6 2C3.79086 2 2 3.79086 2 6V18C2 20.2091 3.79086 22 6 22H14C16.2091 22 18 20.2091 18 18V17C18 16.4477 17.5523 16 17 16C16.4477 16 16 16.4477 16 17V18C16 19.1046 15.1046 20 14 20H6C4.89543 20 4 19.1046 4 18V6C4 4.89543 4.89543 4 6 4H14C15.1046 4 16 4.89543 16 6V7C16 7.55228 16.4477 8 17 8C17.5523 8 18 7.55228 18 7V6C18 3.79086 16.2091 2 14 2H6Z" fill="#1B1D20"/>
<path d="M19.2071 8.79289C18.8166 8.40237 18.1834 8.40237 17.7929 8.79289C17.4024 9.18341 17.4024 9.81658 17.7929 10.2071L18.5858 11H10C9.44771 11 9 11.4477 9 12C9 12.5523 9.44771 13 10 13H18.5858L17.7929 13.7929C17.4024 14.1834 17.4024 14.8166 17.7929 15.2071C18.1834 15.5976 18.8166 15.5976 19.2071 15.2071L21.7071 12.7071C21.8946 12.5196 22 12.2652 22 12C22 11.7348 21.8946 11.4804 21.7071 11.2929L19.2071 8.79289Z" fill="#1B1D20"/>
</svg>
