<svg width="20" height="20" viewBox="0 0 20 20" fill="none" xmlns="http://www.w3.org/2000/svg">
<path fill-rule="evenodd" clip-rule="evenodd" d="M6.05747 2.19497C5.90912 2.06741 5.71942 1.99811 5.52372 2.00004L5.51388 2.00014L2.805 2.00009C2.3551 2.00071 1.96617 2.42719 2.00246 2.87253C2.84089 10.7237 9.29809 17.1425 17.0914 17.9939C17.4621 18.0258 17.5809 17.9282 17.6326 17.8774C17.7245 17.787 17.838 17.588 17.9138 17.1945C17.9874 16.8123 18.0053 16.3555 17.9988 15.8638C17.9958 15.6295 17.9875 15.3996 17.9794 15.172L17.9786 15.1484C17.9704 14.9195 17.9621 14.6847 17.9621 14.4738C17.9621 14.4656 17.9622 14.4573 17.9624 14.449C17.9673 14.2514 17.8994 14.0588 17.7716 13.9079C17.7142 13.8402 17.5465 13.7037 17.2174 13.5417C16.9068 13.3888 16.521 13.2466 16.1065 13.1325C15.2325 12.8919 14.4384 12.8315 14.0669 12.9107C13.9047 12.9453 13.7036 13.0589 13.4232 13.3234C13.2872 13.4517 13.1521 13.5962 13.0012 13.761C12.9809 13.7832 12.9601 13.806 12.9388 13.8293C12.8111 13.9692 12.6678 14.1262 12.5251 14.2689C12.2068 14.5871 11.7151 14.6535 11.3238 14.431C8.90617 13.0565 6.90442 11.055 5.52972 8.63767C5.30717 8.24633 5.37356 7.75451 5.69192 7.43619C5.83464 7.29349 5.99172 7.15017 6.13168 7.02248C6.15488 7.00131 6.17761 6.98058 6.19972 6.96035C6.36446 6.80963 6.50899 6.67456 6.63733 6.53859C6.90174 6.25845 7.01554 6.05721 7.05022 5.8946C7.11781 5.57774 7.07177 4.79764 6.84252 3.91453C6.73411 3.49691 6.59668 3.10447 6.44413 2.78496C6.28379 2.44911 6.1413 2.26706 6.05747 2.19497ZM5.5095 8.76191e-05C6.1885 -0.00527543 6.84651 0.235722 7.36146 0.678526C7.74952 1.01222 8.03705 1.47935 8.24899 1.92328C8.46873 2.38354 8.64583 2.90147 8.77836 3.412C9.03099 4.38519 9.17244 5.53253 9.00622 6.3118C8.85825 7.00555 8.45003 7.53182 8.09178 7.91138C7.95345 8.05794 7.80999 8.19534 7.67603 8.31971C8.70456 9.9053 10.0559 11.2565 11.6418 12.2849C11.7664 12.1507 11.904 12.0071 12.0508 11.8686C12.4304 11.5105 12.9565 11.1025 13.6498 10.9547C14.4951 10.7744 15.6646 10.9365 16.6372 11.2042C17.146 11.3443 17.6543 11.5276 18.1006 11.7473C18.5283 11.9578 18.9803 12.2408 19.2974 12.615C19.7393 13.1365 19.9756 13.8013 19.9621 14.4845C19.9624 14.6507 19.969 14.8452 19.9773 15.077L19.9784 15.1072C19.9863 15.3301 19.9953 15.5801 19.9987 15.8377C20.0056 16.3696 19.9903 16.9882 19.8777 17.5727C19.7673 18.1461 19.5417 18.8051 19.0349 19.3034C18.4882 19.841 17.7502 20.0616 16.9032 19.9851L16.8852 19.9833C8.15367 19.0347 0.947156 11.8734 0.01265 3.07438L0.0111167 3.05878C-0.134536 1.44718 1.17018 0.00162596 2.80343 8.80364e-05L5.5095 8.76191e-05Z" fill="#14120F"/>
</svg>
